<svg xmlns="http://www.w3.org/2000/svg" width="1080" height="100" viewBox="0 0 480 60"><rect x="0" y="0" width="10" height="10" fill="#7a7fd4" /><rect x="30" y="0" width="10" height="10" fill="#7a7fd4" /><rect x="60" y="0" width="10" height="10" fill="#7a7fd4" /><rect x="90" y="0" width="10" height="10" fill="#7a7fd4" /><rect x="130" y="0" width="10" height="10" fill="#7a7fd4" /><rect x="140" y="0" width="10" height="10" fill="#7a7fd4" /><rect x="150" y="0" width="10" height="10" fill="#7a7fd4" /><rect x="250" y="0" width="10" height="10" fill="#7a7fd4" /><rect x="260" y="0" width="10" height="10" fill="#7a7fd4" /><rect x="270" y="0" width="10" height="10" fill="#7a7fd4" /><rect x="300" y="0" width="10" height="10" fill="#7a7fd4" /><rect x="360" y="0" width="10" height="10" fill="#7a7fd4" /><rect x="390" y="0" width="10" height="10" fill="#7a7fd4" /><rect x="420" y="0" width="10" height="10" fill="#7a7fd4" /><rect x="430" y="0" width="10" height="10" fill="#7a7fd4" /><rect x="440" y="0" width="10" height="10" fill="#7a7fd4" /><rect x="0" y="10" width="10" height="10" fill="#7a7fd4" /><rect x="10" y="10" width="10" height="10" fill="#555555" /><rect x="30" y="10" width="10" height="10" fill="#7a7fd4" /><rect x="40" y="10" width="10" height="10" fill="#555555" /><rect x="60" y="10" width="10" height="10" fill="#7a7fd4" /><rect x="70" y="10" width="10" height="10" fill="#555555" /><rect x="90" y="10" width="10" height="10" fill="#7a7fd4" /><rect x="100" y="10" width="10" height="10" fill="#555555" /><rect x="120" y="10" width="10" height="10" fill="#7a7fd4" /><rect x="140" y="10" width="10" height="10" fill="#555555" /><rect x="150" y="10" width="10" height="10" fill="#555555" /><rect x="160" y="10" width="10" height="10" fill="#555555" /><rect x="240" y="10" width="10" height="10" fill="#7a7fd4" /><rect x="260" y="10" width="10" height="10" fill="#555555" /><rect x="270" y="10" width="10" height="10" fill="#555555" /><rect x="280" y="10" width="10" height="10" fill="#555555" /><rect x="300" y="10" width="10" height="10" fill="#7a7fd4" /><rect x="310" y="10" width="10" height="10" fill="#555555" /><rect x="360" y="10" width="10" height="10" fill="#7a7fd4" /><rect x="370" y="10" width="10" height="10" fill="#555555" /><rect x="390" y="10" width="10" height="10" fill="#7a7fd4" /><rect x="400" y="10" width="10" height="10" fill="#555555" /><rect x="420" y="10" width="10" height="10" fill="#7a7fd4" /><rect x="430" y="10" width="10" height="10" fill="#555555" /><rect x="440" y="10" width="10" height="10" fill="#555555" /><rect x="450" y="10" width="10" height="10" fill="#7a7fd4" /><rect x="0" y="20" width="10" height="10" fill="#7a7fd4" /><rect x="10" y="20" width="10" height="10" fill="#555555" /><rect x="30" y="20" width="10" height="10" fill="#7a7fd4" /><rect x="40" y="20" width="10" height="10" fill="#555555" /><rect x="60" y="20" width="10" height="10" fill="#7a7fd4" /><rect x="70" y="20" width="10" height="10" fill="#7a7fd4" /><rect x="80" y="20" width="10" height="10" fill="#7a7fd4" /><rect x="90" y="20" width="10" height="10" fill="#7a7fd4" /><rect x="100" y="20" width="10" height="10" fill="#555555" /><rect x="130" y="20" width="10" height="10" fill="#7a7fd4" /><rect x="140" y="20" width="10" height="10" fill="#7a7fd4" /><rect x="240" y="20" width="10" height="10" fill="#7a7fd4" /><rect x="250" y="20" width="10" height="10" fill="#555555" /><rect x="300" y="20" width="10" height="10" fill="#7a7fd4" /><rect x="310" y="20" width="10" height="10" fill="#555555" /><rect x="360" y="20" width="10" height="10" fill="#7a7fd4" /><rect x="370" y="20" width="10" height="10" fill="#555555" /><rect x="390" y="20" width="10" height="10" fill="#7a7fd4" /><rect x="400" y="20" width="10" height="10" fill="#555555" /><rect x="420" y="20" width="10" height="10" fill="#7a7fd4" /><rect x="430" y="20" width="10" height="10" fill="#7a7fd4" /><rect x="440" y="20" width="10" height="10" fill="#7a7fd4" /><rect x="460" y="20" width="10" height="10" fill="#555555" /><rect x="10" y="30" width="10" height="10" fill="#7a7fd4" /><rect x="20" y="30" width="10" height="10" fill="#7a7fd4" /><rect x="40" y="30" width="10" height="10" fill="#555555" /><rect x="60" y="30" width="10" height="10" fill="#7a7fd4" /><rect x="70" y="30" width="10" height="10" fill="#555555" /><rect x="80" y="30" width="10" height="10" fill="#555555" /><rect x="90" y="30" width="10" height="10" fill="#7a7fd4" /><rect x="100" y="30" width="10" height="10" fill="#555555" /><rect x="140" y="30" width="10" height="10" fill="#555555" /><rect x="150" y="30" width="10" height="10" fill="#7a7fd4" /><rect x="240" y="30" width="10" height="10" fill="#7a7fd4" /><rect x="250" y="30" width="10" height="10" fill="#555555" /><rect x="300" y="30" width="10" height="10" fill="#7a7fd4" /><rect x="310" y="30" width="10" height="10" fill="#555555" /><rect x="360" y="30" width="10" height="10" fill="#7a7fd4" /><rect x="370" y="30" width="10" height="10" fill="#555555" /><rect x="390" y="30" width="10" height="10" fill="#7a7fd4" /><rect x="400" y="30" width="10" height="10" fill="#555555" /><rect x="420" y="30" width="10" height="10" fill="#7a7fd4" /><rect x="430" y="30" width="10" height="10" fill="#555555" /><rect x="440" y="30" width="10" height="10" fill="#555555" /><rect x="450" y="30" width="10" height="10" fill="#7a7fd4" /><rect x="20" y="40" width="10" height="10" fill="#7a7fd4" /><rect x="30" y="40" width="10" height="10" fill="#555555" /><rect x="60" y="40" width="10" height="10" fill="#7a7fd4" /><rect x="70" y="40" width="10" height="10" fill="#555555" /><rect x="90" y="40" width="10" height="10" fill="#7a7fd4" /><rect x="100" y="40" width="10" height="10" fill="#555555" /><rect x="120" y="40" width="10" height="10" fill="#7a7fd4" /><rect x="130" y="40" width="10" height="10" fill="#7a7fd4" /><rect x="140" y="40" width="10" height="10" fill="#7a7fd4" /><rect x="160" y="40" width="10" height="10" fill="#555555" /><rect x="250" y="40" width="10" height="10" fill="#7a7fd4" /><rect x="260" y="40" width="10" height="10" fill="#7a7fd4" /><rect x="270" y="40" width="10" height="10" fill="#7a7fd4" /><rect x="300" y="40" width="10" height="10" fill="#7a7fd4" /><rect x="310" y="40" width="10" height="10" fill="#7a7fd4" /><rect x="320" y="40" width="10" height="10" fill="#7a7fd4" /><rect x="330" y="40" width="10" height="10" fill="#7a7fd4" /><rect x="370" y="40" width="10" height="10" fill="#7a7fd4" /><rect x="380" y="40" width="10" height="10" fill="#7a7fd4" /><rect x="400" y="40" width="10" height="10" fill="#555555" /><rect x="420" y="40" width="10" height="10" fill="#7a7fd4" /><rect x="430" y="40" width="10" height="10" fill="#7a7fd4" /><rect x="440" y="40" width="10" height="10" fill="#7a7fd4" /><rect x="460" y="40" width="10" height="10" fill="#555555" /><rect x="30" y="50" width="10" height="10" fill="#555555" /><rect x="70" y="50" width="10" height="10" fill="#555555" /><rect x="100" y="50" width="10" height="10" fill="#555555" /><rect x="130" y="50" width="10" height="10" fill="#555555" /><rect x="140" y="50" width="10" height="10" fill="#555555" /><rect x="150" y="50" width="10" height="10" fill="#555555" /><rect x="260" y="50" width="10" height="10" fill="#555555" /><rect x="270" y="50" width="10" height="10" fill="#555555" /><rect x="280" y="50" width="10" height="10" fill="#555555" /><rect x="310" y="50" width="10" height="10" fill="#555555" /><rect x="320" y="50" width="10" height="10" fill="#555555" /><rect x="330" y="50" width="10" height="10" fill="#555555" /><rect x="340" y="50" width="10" height="10" fill="#555555" /><rect x="380" y="50" width="10" height="10" fill="#555555" /><rect x="390" y="50" width="10" height="10" fill="#555555" /><rect x="430" y="50" width="10" height="10" fill="#555555" /><rect x="440" y="50" width="10" height="10" fill="#555555" /><rect x="450" y="50" width="10" height="10" fill="#555555" /></svg>
